<svg width="429" height="533" viewBox="0 0 429 533" fill="none" xmlns="http://www.w3.org/2000/svg">
<path d="M225.965 223.428L152.201 255.473L65.8211 492.049C65.4801 492.983 66.347 493.908 67.301 493.627L134.611 473.82L173.197 532.288C173.745 533.119 175.006 532.971 175.347 532.036L261.726 295.463L225.965 223.428Z" fill="#25AEF2"/>
<path opacity="0.5" d="M225.965 223.428L152.201 255.473L65.8211 492.049C65.4801 492.983 66.347 493.908 67.301 493.627L134.611 473.82L173.197 532.288C173.745 533.119 175.006 532.971 175.347 532.036L261.726 295.463L225.965 223.428Z" fill="#25AEF2"/>
<path opacity="0.5" d="M249.63 271.099L214.562 281.126L199.87 464.875L261.726 295.463L249.63 271.099Z" fill="#1BAFDD"/>
<path d="M380.201 481.511L274.452 254.126L198.228 228.476L168.729 303.294L274.425 530.563C275.052 531.912 276.95 531.965 277.652 530.654L309.307 471.547L378.245 484.047C379.682 484.308 380.818 482.837 380.201 481.511Z" fill="#25AEF2"/>
<path opacity="0.3" d="M214.562 397.199C255.689 397.199 293.478 382.91 323.238 359.028L274.451 254.126L234.536 240.695L225.964 223.428L207.309 231.533L198.227 228.477L194.896 236.926L152.201 255.474L112.536 364.108C141.186 384.922 176.44 397.199 214.562 397.199Z" fill="#1BAFDD"/>
<path d="M214.562 387.657C310.533 387.657 388.333 309.857 388.333 213.886C388.333 117.915 310.533 40.115 214.562 40.115C118.591 40.115 40.791 117.915 40.791 213.886C40.791 309.857 118.591 387.657 214.562 387.657Z" fill="#EA6C3B"/>
<path opacity="0.5" d="M45.579 218.674C45.579 122.703 123.379 44.903 219.35 44.903C266.118 44.903 308.566 63.384 339.803 93.435C308.188 60.571 263.766 40.115 214.562 40.115C118.591 40.115 40.791 117.915 40.791 213.886C40.791 263.089 61.246 307.51 94.109 339.125C64.059 307.888 45.579 265.441 45.579 218.674Z" fill="#EA6C3B"/>
<path opacity="0.5" d="M353.067 108.946C371.7 136.63 382.577 169.968 382.577 205.848C382.577 301.819 304.777 379.619 208.806 379.619C152.262 379.619 102.034 352.606 70.301 310.788C101.507 357.153 154.471 387.656 214.562 387.656C310.533 387.656 388.333 309.856 388.333 213.885C388.333 174.458 375.194 138.105 353.067 108.946Z" fill="#EA6C3B"/>
<path opacity="0.5" d="M321.439 320.779C380.471 261.747 380.471 166.037 321.439 107.005C262.407 47.9733 166.697 47.9733 107.666 107.005C48.6336 166.037 48.6336 261.747 107.666 320.778C166.697 379.81 262.407 379.81 321.439 320.779Z" fill="#EA6C3B"/>
<path d="M315.054 314.394C370.56 258.888 370.56 168.896 315.054 113.39C259.549 57.8838 169.556 57.8838 114.05 113.39C58.5441 168.895 58.544 258.888 114.05 314.394C169.556 369.9 259.549 369.9 315.054 314.394Z" fill="#EA6C3B"/>
<path d="M308.722 308.061C360.73 256.053 360.73 171.731 308.722 119.722C256.713 67.7141 172.391 67.7141 120.383 119.722C68.3744 171.731 68.3743 256.053 120.383 308.061C172.391 360.07 256.713 360.07 308.722 308.061Z" fill="#EA6C3B"/>
<g opacity="0.7">
<path d="M254.308 215.62C258.76 220.643 260.987 226.955 260.987 234.558C260.987 241.875 258.984 248.117 254.986 253.282C250.984 258.447 245.597 262.357 238.822 265.011C232.047 267.667 224.657 268.992 216.657 268.992C202.589 268.992 192.039 266.268 185.006 260.814C177.97 255.363 174.455 248.547 174.455 240.369C174.455 235.635 175.487 231.942 177.553 229.286C179.616 226.633 182.393 225.305 185.877 225.305C188.844 225.305 191.07 226.132 192.556 227.781C194.038 229.431 195.296 232.266 196.33 236.281C197.231 240.155 199.104 243.097 201.944 245.105C204.781 247.116 209.17 248.118 215.107 248.118C220.785 248.118 225.463 246.934 229.142 244.567C232.82 242.2 234.659 238.578 234.659 233.699C234.659 228.678 232.917 224.983 229.433 222.616C225.949 220.249 220.528 218.924 213.172 218.635C210.462 218.493 208.429 217.451 207.074 215.514C205.719 213.578 205.041 211.247 205.041 208.52C205.041 205.077 205.589 202.602 206.687 201.096C207.782 199.589 209.688 198.55 212.398 197.975C220.916 196.542 227.077 193.779 230.885 189.69C234.69 185.601 236.595 180.688 236.595 174.948C236.595 167.059 231.689 163.112 221.883 163.112C211.042 163.112 204.654 167.846 202.719 177.315C201.814 181.189 200.492 183.954 198.75 185.601C197.008 187.251 194.588 188.076 191.49 188.076C188.006 188.076 185.326 186.967 183.457 184.74C181.585 182.517 180.65 179.542 180.65 175.809C180.65 170.073 182.456 164.618 186.07 159.454C189.681 154.289 194.811 150.129 201.46 146.972C208.106 143.818 215.882 142.238 224.786 142.238C237.176 142.238 246.661 144.894 253.243 150.201C259.825 155.51 263.115 163.402 263.115 173.873C263.115 180.76 260.759 187.183 256.05 193.135C251.337 199.09 245.239 203.573 237.757 206.585C244.338 207.587 249.856 210.599 254.308 215.62Z" fill="#EA6C3B"/>
</g>
<g opacity="0.5">
<path d="M219.411 319.832C221.777 322.529 224.284 325.208 226.93 327.857C228.319 329.223 230.137 330.235 232.257 330.936C233.314 331.274 234.454 331.572 235.63 331.71C236.805 331.844 238.033 331.892 239.29 331.855C240.543 331.805 241.842 331.726 243.117 331.46C244.394 331.199 245.675 330.854 246.937 330.427C249.477 329.625 251.854 328.253 253.984 326.695C250.783 324.63 247.751 322.608 244.793 320.351C243.235 319.169 241.38 318.316 239.374 317.78C237.366 317.243 235.162 316.871 232.933 316.889C230.702 316.904 228.373 317.019 226.107 317.571C223.825 318.058 221.556 318.737 219.411 319.832Z" fill="#EA6C3B"/>
<path d="M239.401 304.197C240.297 300.8 240.984 297.26 241.569 293.888C237.477 293.777 233.629 294.947 230.327 296.86C227.066 298.872 224.311 301.575 222.933 305.107C221.611 308.331 220.145 311.586 218.533 314.861C220.76 315.293 223.104 315.395 225.367 315.096C227.614 314.709 229.815 314.093 231.746 313.062C233.671 312.006 235.383 310.767 236.692 309.244C237.996 307.699 238.932 305.996 239.401 304.197Z" fill="#EA6C3B"/>
<path d="M243.926 313.949C246.553 315.949 249.296 317.908 252.153 319.819C253.665 320.844 255.466 321.397 257.495 321.658C258.506 321.782 259.569 321.818 260.663 321.77C261.753 321.713 262.849 321.515 263.97 321.265C265.087 321.008 266.216 320.669 267.334 320.254C268.451 319.838 269.518 319.269 270.575 318.671C271.626 318.063 272.646 317.386 273.611 316.646C274.559 315.877 275.438 315.02 276.25 314.124C274.649 313.474 273.073 312.806 271.523 312.122C269.963 311.421 268.408 310.667 266.892 309.917C265.286 309.116 263.482 308.693 261.571 308.541C259.637 308.347 257.613 308.46 255.602 308.866C253.564 309.216 251.509 309.797 249.559 310.696C247.572 311.512 245.662 312.575 243.926 313.949Z" fill="#EA6C3B"/>
<path d="M259.24 296.227C259.346 294.589 259.439 292.993 259.478 291.366C259.509 289.727 259.514 288.105 259.492 286.501C258.553 286.658 257.646 286.894 256.776 287.202C255.883 287.471 255.02 287.802 254.2 288.205C253.377 288.601 252.605 289.084 251.856 289.587C251.096 290.067 250.381 290.607 249.716 291.2C249.049 291.79 248.438 292.445 247.873 293.124C247.295 293.774 246.774 294.471 246.317 295.207C245.4 296.667 244.763 298.338 244.432 299.994C243.813 303.152 243.082 306.376 242.219 309.612C244.32 309.618 246.437 309.235 248.443 308.592C250.408 307.846 252.26 306.834 253.851 305.617C255.407 304.321 256.713 302.846 257.656 301.28C258.585 299.685 259.121 297.938 259.24 296.227Z" fill="#EA6C3B"/>
<path d="M266.509 303.401C269.227 304.719 272.033 305.985 274.925 307.193C276.464 307.852 278.163 308.029 280.016 307.912C281.854 307.775 283.842 307.338 285.715 306.467C289.532 304.827 293.148 301.811 295.441 298.076C292.403 297.464 289.307 296.633 286.357 295.811C283.257 294.973 279.526 295.363 276.065 296.782C274.285 297.43 272.561 298.337 270.97 299.484C269.332 300.56 267.816 301.862 266.509 303.401Z" fill="#EA6C3B"/>
<path d="M277.184 284.791C276.818 281.788 276.428 278.919 275.837 275.98C272.534 277.195 269.764 279.34 267.73 281.935C266.749 283.279 265.898 284.658 265.329 286.154C264.752 287.635 264.472 289.261 264.46 290.8C264.461 293.754 264.373 296.767 264.194 299.835C266.074 299.445 267.911 298.732 269.593 297.791C271.231 296.781 272.702 295.528 273.923 294.162C276.283 291.303 277.596 287.977 277.184 284.791Z" fill="#EA6C3B"/>
<path d="M287.019 288.117C289.679 288.795 292.419 289.434 295.186 289.981C296.628 290.252 298.198 290.148 299.809 289.719C301.425 289.296 303.077 288.546 304.581 287.464C307.676 285.38 310.312 282.096 311.736 278.441C308.902 278.36 306.046 278.156 303.282 277.916C300.393 277.696 297.129 278.666 294.312 280.541C292.858 281.441 291.471 282.536 290.26 283.835C289.055 285.139 287.892 286.513 287.019 288.117Z" fill="#EA6C3B"/>
<path d="M293.244 269.669C292.411 267.05 291.575 264.538 290.595 262.024C287.804 263.665 285.702 266.113 284.305 268.794C283.964 269.47 283.69 270.182 283.452 270.888C283.201 271.581 283.009 272.291 282.882 273.008C282.628 274.442 282.627 275.907 282.927 277.318C283.465 279.961 283.908 282.631 284.305 285.379C285.905 284.686 287.455 283.768 288.736 282.582C290.011 281.39 291.109 280.028 291.955 278.596C293.531 275.617 294.156 272.452 293.244 269.669Z" fill="#EA6C3B"/>
<path d="M303.382 269.849C305.841 269.985 308.367 270.086 310.881 270.097C313.48 270.08 316.381 268.712 318.702 266.36C319.855 265.182 320.9 263.79 321.758 262.272C322.55 260.717 323.153 259.037 323.489 257.329C320.958 257.679 318.456 257.968 315.986 258.198C313.37 258.44 310.68 259.838 308.508 261.953C307.367 262.979 306.344 264.185 305.496 265.531C304.667 266.89 303.872 268.291 303.382 269.849Z" fill="#EA6C3B"/>
<path d="M305.806 252.541C304.652 250.358 303.465 248.237 302.248 246.179C297.969 250.063 295.966 256.227 297.929 261.049C298.857 263.299 299.693 265.568 300.517 267.915C301.808 267.027 303.025 265.959 303.94 264.689C304.861 263.422 305.595 262.034 306.099 260.629C307.017 257.754 307.008 254.828 305.806 252.541Z" fill="#EA6C3B"/>
<path d="M315.538 249.47C317.7 249.182 319.885 248.846 322.091 248.461C324.388 248.048 326.569 246.363 328.286 244.007C329.101 242.815 329.755 241.441 330.244 239.995C330.486 239.271 330.683 238.528 330.827 237.776C330.94 237.014 330.999 236.243 331.001 235.476C328.884 236.162 326.773 236.794 324.604 237.35C320.073 238.591 316.377 243.852 315.538 249.47Z" fill="#EA6C3B"/>
<path d="M314.864 233.995C313.583 232.286 312.202 230.601 310.802 228.969C310.4 229.481 310.045 230.021 309.739 230.582C309.414 231.137 309.114 231.705 308.875 232.292C308.388 233.463 308.098 234.695 307.987 235.926C307.655 238.34 308.115 240.8 309.354 242.717C310.5 244.517 311.626 246.368 312.727 248.269C313.712 247.285 314.547 246.135 315.186 244.902C315.772 243.646 316.175 242.315 316.378 241.005C316.477 240.349 316.536 239.702 316.524 239.064C316.496 238.419 316.417 237.792 316.285 237.191C316.023 235.99 315.552 234.9 314.864 233.995Z" fill="#EA6C3B"/>
<path d="M323.328 228.297C325.118 227.709 326.919 227.081 328.729 226.415C329.683 226.064 330.58 225.457 331.384 224.655C332.161 223.848 332.811 222.839 333.343 221.71C333.863 220.58 334.286 219.334 334.474 218.035C334.642 216.732 334.642 215.388 334.444 214.087C332.704 214.96 330.969 215.794 329.241 216.587C327.454 217.433 325.818 219.129 324.814 221.229C324.557 221.754 324.338 222.305 324.149 222.873C323.936 223.436 323.76 224.018 323.624 224.613C323.352 225.803 323.244 227.046 323.328 228.297Z" fill="#EA6C3B"/>
<path d="M320.407 215.121C319.011 213.827 317.608 212.575 316.2 211.364C315.635 212.366 315.25 213.439 315.036 214.533C314.816 215.627 314.676 216.726 314.751 217.808C314.813 218.886 315.046 219.939 315.425 220.905C315.767 221.862 316.274 222.737 316.946 223.462C318.22 224.837 319.484 226.254 320.737 227.711C321.412 226.71 321.925 225.589 322.271 224.432C322.628 223.278 322.796 222.083 322.727 220.919C322.614 218.595 321.911 216.488 320.407 215.121Z" fill="#EA6C3B"/>
<path d="M326.552 211.374C328.031 210.674 329.427 209.934 330.874 209.172C332.376 208.368 333.602 206.732 334.253 204.736C334.847 202.739 334.97 200.394 334.37 198.263C333.013 199.167 331.589 200.041 330.203 200.886C328.72 201.779 327.656 203.387 327.006 205.263C326.305 207.137 326.147 209.297 326.552 211.374Z" fill="#EA6C3B"/>
<path d="M322.6 200.579C321.298 199.631 320.042 198.714 318.7 197.824C317.96 199.652 317.766 201.652 318.158 203.483C318.502 205.308 319.293 206.963 320.615 208.042C321.843 209.06 323.126 210.115 324.3 211.187C325.244 209.345 325.475 207.17 325.212 205.233C324.906 203.289 323.947 201.575 322.6 200.579Z" fill="#EA6C3B"/>
<path d="M324.925 179.764C324.037 180.882 323.351 182.381 322.939 184.105C322.566 185.828 322.321 187.787 322.419 189.858C322.461 190.894 322.633 191.892 322.789 192.843C322.946 193.794 323.176 194.697 323.469 195.536C324.053 197.214 324.908 198.643 325.826 199.672C326.901 198.713 327.715 197.286 328.3 195.54C328.592 194.668 328.821 193.716 328.977 192.709C329.133 191.702 329.128 190.641 329.083 189.547C328.98 187.359 328.547 185.33 327.748 183.653C326.99 181.971 326.015 180.628 324.925 179.764Z" fill="#EA6C3B"/>
</g>
<g opacity="0.5">
<path d="M209.712 319.832C207.346 322.529 204.839 325.208 202.193 327.857C200.804 329.223 198.986 330.235 196.866 330.936C195.809 331.274 194.669 331.572 193.493 331.71C192.318 331.844 191.09 331.892 189.833 331.855C188.58 331.805 187.281 331.726 186.006 331.46C184.729 331.199 183.448 330.854 182.186 330.427C179.646 329.625 177.269 328.253 175.139 326.695C178.34 324.63 181.372 322.608 184.33 320.351C185.888 319.169 187.743 318.316 189.749 317.78C191.757 317.243 193.961 316.871 196.19 316.889C198.421 316.904 200.75 317.019 203.016 317.571C205.298 318.058 207.567 318.737 209.712 319.832Z" fill="#EA6C3B"/>
<path d="M189.722 304.197C188.826 300.8 188.139 297.26 187.554 293.888C191.646 293.777 195.494 294.947 198.796 296.86C202.057 298.872 204.812 301.575 206.19 305.107C207.512 308.331 208.978 311.586 210.59 314.861C208.363 315.293 206.019 315.395 203.756 315.096C201.509 314.709 199.308 314.093 197.377 313.062C195.452 312.006 193.74 310.767 192.431 309.244C191.128 307.699 190.191 305.996 189.722 304.197Z" fill="#EA6C3B"/>
<path d="M185.198 313.949C182.571 315.949 179.828 317.908 176.971 319.819C175.459 320.844 173.658 321.397 171.629 321.658C170.618 321.782 169.555 321.818 168.461 321.77C167.371 321.713 166.275 321.515 165.154 321.265C164.037 321.008 162.908 320.669 161.79 320.254C160.673 319.838 159.606 319.269 158.549 318.671C157.498 318.063 156.478 317.386 155.513 316.646C154.565 315.877 153.686 315.02 152.874 314.124C154.475 313.474 156.051 312.806 157.601 312.122C159.161 311.421 160.716 310.667 162.233 309.917C163.839 309.116 165.643 308.693 167.554 308.541C169.488 308.347 171.512 308.46 173.523 308.866C175.561 309.216 177.616 309.797 179.566 310.696C181.551 311.512 183.461 312.575 185.198 313.949Z" fill="#EA6C3B"/>
<path d="M169.883 296.227C169.777 294.589 169.684 292.993 169.645 291.366C169.614 289.727 169.609 288.105 169.631 286.501C170.57 286.658 171.477 286.894 172.347 287.202C173.24 287.471 174.103 287.802 174.923 288.205C175.746 288.601 176.518 289.084 177.267 289.587C178.027 290.067 178.742 290.607 179.407 291.2C180.074 291.79 180.685 292.445 181.25 293.124C181.828 293.774 182.349 294.471 182.806 295.207C183.723 296.667 184.36 298.338 184.691 299.994C185.31 303.152 186.041 306.376 186.904 309.612C184.803 309.618 182.686 309.235 180.68 308.592C178.715 307.846 176.863 306.834 175.272 305.617C173.716 304.321 172.411 302.846 171.467 301.28C170.538 299.685 170.002 297.938 169.883 296.227Z" fill="#EA6C3B"/>
<path d="M162.614 303.401C159.896 304.719 157.09 305.985 154.198 307.193C152.659 307.852 150.96 308.029 149.107 307.912C147.269 307.775 145.281 307.338 143.408 306.467C139.591 304.827 135.975 301.811 133.682 298.076C136.72 297.464 139.816 296.633 142.766 295.811C145.866 294.973 149.597 295.363 153.058 296.782C154.838 297.43 156.562 298.337 158.153 299.484C159.791 300.56 161.307 301.862 162.614 303.401Z" fill="#EA6C3B"/>
<path d="M151.939 284.791C152.305 281.788 152.695 278.919 153.286 275.98C156.589 277.195 159.359 279.34 161.393 281.935C162.374 283.279 163.225 284.658 163.794 286.154C164.371 287.635 164.651 289.261 164.663 290.8C164.662 293.754 164.75 296.767 164.929 299.835C163.049 299.445 161.212 298.732 159.53 297.791C157.892 296.781 156.421 295.528 155.2 294.162C152.84 291.303 151.527 287.977 151.939 284.791Z" fill="#EA6C3B"/>
<path d="M142.104 288.117C139.444 288.795 136.704 289.434 133.937 289.981C132.495 290.252 130.925 290.148 129.314 289.719C127.698 289.296 126.046 288.546 124.542 287.464C121.447 285.38 118.811 282.096 117.387 278.441C120.221 278.36 123.077 278.156 125.841 277.916C128.73 277.696 131.994 278.666 134.811 280.541C136.265 281.441 137.652 282.536 138.863 283.835C140.069 285.139 141.231 286.513 142.104 288.117Z" fill="#EA6C3B"/>
<path d="M135.879 269.669C136.712 267.05 137.548 264.538 138.528 262.024C141.319 263.665 143.421 266.113 144.818 268.794C145.159 269.47 145.433 270.182 145.671 270.888C145.922 271.581 146.114 272.291 146.241 273.008C146.495 274.442 146.496 275.907 146.196 277.318C145.658 279.961 145.215 282.631 144.818 285.379C143.218 284.686 141.668 283.768 140.387 282.582C139.112 281.39 138.014 280.028 137.168 278.596C135.592 275.617 134.967 272.452 135.879 269.669Z" fill="#EA6C3B"/>
<path d="M125.742 269.849C123.283 269.985 120.757 270.086 118.243 270.097C115.644 270.08 112.743 268.712 110.422 266.36C109.269 265.182 108.224 263.79 107.366 262.272C106.574 260.717 105.972 259.037 105.635 257.329C108.166 257.679 110.668 257.968 113.138 258.198C115.754 258.44 118.444 259.838 120.616 261.953C121.757 262.979 122.78 264.185 123.628 265.531C124.456 266.89 125.251 268.291 125.742 269.849Z" fill="#EA6C3B"/>
<path d="M123.317 252.541C124.471 250.358 125.658 248.237 126.875 246.179C131.154 250.063 133.157 256.227 131.194 261.049C130.266 263.299 129.43 265.568 128.606 267.915C127.315 267.027 126.098 265.959 125.183 264.689C124.262 263.422 123.529 262.034 123.024 260.629C122.106 257.754 122.115 254.828 123.317 252.541Z" fill="#EA6C3B"/>
<path d="M113.585 249.47C111.423 249.182 109.238 248.846 107.032 248.461C104.735 248.048 102.554 246.363 100.837 244.007C100.022 242.815 99.368 241.441 98.879 239.995C98.637 239.271 98.44 238.528 98.296 237.776C98.183 237.014 98.1239 236.243 98.1219 235.476C100.239 236.162 102.35 236.794 104.519 237.35C109.05 238.591 112.746 243.852 113.585 249.47Z" fill="#EA6C3B"/>
<path d="M114.259 233.995C115.54 232.286 116.921 230.601 118.321 228.969C118.723 229.481 119.078 230.021 119.384 230.582C119.709 231.137 120.009 231.705 120.248 232.292C120.735 233.463 121.025 234.695 121.136 235.926C121.468 238.34 121.008 240.8 119.769 242.717C118.622 244.517 117.497 246.368 116.396 248.269C115.411 247.285 114.576 246.135 113.937 244.902C113.351 243.646 112.948 242.315 112.745 241.005C112.646 240.349 112.587 239.702 112.599 239.064C112.627 238.419 112.706 237.792 112.838 237.191C113.1 235.99 113.572 234.9 114.259 233.995Z" fill="#EA6C3B"/>
<path d="M105.795 228.297C104.005 227.709 102.204 227.081 100.394 226.415C99.44 226.064 98.543 225.457 97.739 224.655C96.962 223.848 96.312 222.839 95.78 221.71C95.26 220.58 94.837 219.334 94.649 218.035C94.481 216.732 94.4809 215.388 94.6789 214.087C96.4189 214.96 98.1539 215.794 99.8819 216.587C101.669 217.433 103.305 219.129 104.309 221.229C104.566 221.754 104.785 222.305 104.974 222.873C105.187 223.436 105.363 224.018 105.499 224.613C105.772 225.803 105.88 227.046 105.795 228.297Z" fill="#EA6C3B"/>
<path d="M108.716 215.121C110.112 213.827 111.515 212.575 112.923 211.364C113.488 212.366 113.873 213.439 114.087 214.533C114.307 215.627 114.447 216.726 114.372 217.808C114.31 218.886 114.077 219.939 113.698 220.905C113.356 221.862 112.849 222.737 112.177 223.462C110.903 224.837 109.639 226.254 108.386 227.711C107.711 226.71 107.198 225.589 106.852 224.432C106.495 223.278 106.327 222.083 106.396 220.919C106.509 218.595 107.213 216.488 108.716 215.121Z" fill="#EA6C3B"/>
<path d="M102.571 211.374C101.092 210.674 99.696 209.934 98.249 209.172C96.747 208.368 95.521 206.732 94.87 204.736C94.276 202.739 94.153 200.394 94.753 198.263C96.11 199.167 97.534 200.041 98.92 200.886C100.403 201.779 101.467 203.387 102.117 205.263C102.819 207.137 102.976 209.297 102.571 211.374Z" fill="#EA6C3B"/>
<path d="M106.523 200.579C107.825 199.631 109.081 198.714 110.423 197.824C111.163 199.652 111.357 201.652 110.965 203.483C110.621 205.308 109.83 206.963 108.508 208.042C107.28 209.06 105.997 210.115 104.823 211.187C103.879 209.345 103.648 207.17 103.911 205.233C104.217 203.289 105.177 201.575 106.523 200.579Z" fill="#EA6C3B"/>
<path d="M104.198 179.764C105.086 180.882 105.772 182.381 106.184 184.105C106.557 185.828 106.802 187.787 106.704 189.858C106.662 190.894 106.49 191.892 106.334 192.843C106.177 193.794 105.947 194.697 105.654 195.536C105.07 197.214 104.215 198.643 103.297 199.672C102.222 198.713 101.408 197.286 100.823 195.54C100.531 194.668 100.302 193.716 100.146 192.709C99.9899 191.702 99.995 190.641 100.04 189.547C100.143 187.359 100.576 185.33 101.375 183.653C102.133 181.971 103.109 180.628 104.198 179.764Z" fill="#EA6C3B"/>
</g>
<path opacity="0.4" d="M291.368 116.888L290.057 126.445L297.188 132.943L287.693 134.65L283.717 143.44L279.159 134.937L269.571 133.871L276.249 126.909L274.3 117.461L282.985 121.661L291.368 116.888Z" fill="#EA6C3B"/>
<path opacity="0.4" d="M255.039 98.995L256.746 108.49L265.535 112.467L257.033 117.024L255.967 126.612L249.005 119.934L239.557 121.883L243.757 113.199L238.984 104.815L248.541 106.126L255.039 98.995Z" fill="#EA6C3B"/>
<path opacity="0.4" d="M214.959 93.205L219.517 101.708L229.104 102.773L222.427 109.735L224.376 119.183L215.691 114.984L207.308 119.757L208.618 110.2L201.488 103.702L210.983 101.995L214.959 93.205Z" fill="#EA6C3B"/>
<path opacity="0.4" d="M175.051 100.084L182.013 106.762L191.461 104.813L187.262 113.497L192.035 121.88L182.478 120.57L175.98 127.701L174.272 118.206L165.483 114.229L173.986 109.672L175.051 100.084Z" fill="#EA6C3B"/>
<path opacity="0.4" d="M139.223 118.958L147.907 123.158L156.291 118.384L154.98 127.942L162.111 134.439L152.616 136.147L148.64 144.936L144.082 136.434L134.494 135.368L141.172 128.406L139.223 118.958Z" fill="#EA6C3B"/>
<path opacity="0.4" d="M131.95 151.887C131.95 149.242 129.806 147.098 127.16 147.098C124.514 147.098 122.371 149.242 122.371 151.887C122.371 154.532 124.515 156.676 127.16 156.676C129.805 156.676 131.95 154.532 131.95 151.887Z" fill="#EA6C3B"/>
<path opacity="0.4" d="M311.541 151.887C311.541 149.242 309.397 147.098 306.752 147.098C304.107 147.098 301.962 149.242 301.962 151.887C301.962 154.532 304.106 156.676 306.752 156.676C309.397 156.676 311.541 154.532 311.541 151.887Z" fill="#EA6C3B"/>
<path opacity="0.3" d="M214.562 80.709C211.548 80.709 208.561 80.819 205.597 81.016L81.692 204.921C81.495 207.885 81.385 210.872 81.385 213.886C81.385 236.458 87.008 257.713 96.918 276.341L277.017 96.242C258.388 86.332 237.133 80.709 214.562 80.709Z" fill="#EA6C3B"/>
<path opacity="0.3" d="M289.786 103.982L104.658 289.11C110.474 297.59 117.241 305.366 124.813 312.277L312.952 124.138C306.042 116.566 298.266 109.798 289.786 103.982Z" fill="#EA6C3B"/>
<path opacity="0.3" d="M347.739 213.885C347.739 207.264 347.248 200.757 346.315 194.395L195.071 345.639C201.434 346.572 207.94 347.063 214.562 347.063C229.281 347.063 243.439 344.67 256.676 340.26L340.936 256C345.345 242.762 347.739 228.604 347.739 213.885Z" fill="#EA6C3B"/>
<path d="M214.562 348.695C140.228 348.695 79.7531 288.22 79.7531 213.886C79.7531 139.552 140.228 79.076 214.562 79.076C288.896 79.076 349.371 139.551 349.371 213.886C349.371 288.219 288.896 348.695 214.562 348.695ZM214.562 82.341C142.028 82.341 83.017 141.352 83.017 213.886C83.017 286.42 142.028 345.43 214.562 345.43C287.096 345.43 346.107 286.419 346.107 213.886C346.106 141.352 287.096 82.341 214.562 82.341Z" fill="#EA6C3B"/>
<g opacity="0.5">
<path d="M214.562 348.695C140.228 348.695 79.7531 288.22 79.7531 213.886C79.7531 139.552 140.228 79.076 214.562 79.076C288.896 79.076 349.371 139.551 349.371 213.886C349.371 288.219 288.896 348.695 214.562 348.695ZM214.562 82.341C142.028 82.341 83.017 141.352 83.017 213.886C83.017 286.42 142.028 345.43 214.562 345.43C287.096 345.43 346.107 286.419 346.107 213.886C346.106 141.352 287.096 82.341 214.562 82.341Z" fill="#EA6C3B"/>
</g>
<path d="M132.649 127.783C115.276 121.62 110.522 116.623 104.659 98.362C98.7951 116.624 94.0419 121.62 76.6689 127.783C94.0419 133.947 98.7961 138.943 104.659 157.204C110.522 138.943 115.276 133.947 132.649 127.783Z" fill="white"/>
<path d="M332.145 292.149C315.719 286.322 311.225 281.598 305.681 264.332C300.137 281.598 295.643 286.321 279.217 292.149C295.643 297.976 300.137 302.7 305.681 319.965C311.225 302.7 315.72 297.976 332.145 292.149Z" fill="white"/>
<path d="M345.209 319.965C337.1 317.088 334.882 314.757 332.145 306.233C329.408 314.756 327.19 317.088 319.081 319.965C327.19 322.842 329.408 325.173 332.145 333.697C334.882 325.174 337.1 322.842 345.209 319.965Z" fill="white"/>
<path d="M147.675 94.44C139.566 91.563 137.348 89.232 134.611 80.708C131.874 89.231 129.656 91.563 121.547 94.44C129.656 97.317 131.874 99.648 134.611 108.172C137.348 99.649 139.567 97.317 147.675 94.44Z" fill="white"/>
<path d="M206.22 301.024C196.98 301.024 187.992 299.512 179.256 296.488C170.52 293.296 163.464 288.508 158.088 282.124L172.452 261.208L173.964 259.192L175.98 260.452C176.316 261.796 176.652 263.14 176.988 264.484C177.492 265.828 178.752 267.508 180.768 269.524C183.792 272.212 187.32 274.396 191.352 276.076C195.552 277.588 200.088 278.344 204.96 278.344C210.336 278.344 214.872 277.336 218.568 275.32C222.264 273.136 225.036 270.196 226.884 266.5C228.9 262.636 229.908 258.268 229.908 253.396C229.908 248.188 228.984 243.82 227.136 240.292C225.456 236.596 222.852 233.74 219.324 231.724C215.964 229.708 211.68 228.364 206.472 227.692C201.432 227.02 195.468 227.104 188.58 227.944V205.768C195.972 205.936 202.104 205.432 206.976 204.256C211.848 203.08 215.712 201.4 218.568 199.216C221.424 197.032 223.44 194.512 224.616 191.656C225.792 188.632 226.38 185.524 226.38 182.332C226.38 179.14 225.876 176.368 224.868 174.016C223.86 171.496 222.432 169.396 220.584 167.716C218.904 165.868 216.72 164.524 214.032 163.684C211.512 162.676 208.656 162.172 205.464 162.172C202.104 162.172 198.744 162.592 195.384 163.432C192.192 164.272 189.084 165.616 186.06 167.464C183.204 169.144 180.516 171.412 177.996 174.268L161.616 157.636C167.664 150.916 174.636 146.128 182.532 143.272C190.596 140.248 198.576 138.736 206.472 138.736C215.712 138.736 223.86 140.5 230.916 144.028C238.14 147.556 243.768 152.344 247.8 158.392C251.832 164.44 253.848 171.412 253.848 179.308C253.848 185.02 252.672 190.228 250.32 194.932C248.136 199.636 245.112 203.668 241.248 207.028C237.552 210.22 233.604 212.74 229.404 214.588C234.276 216.268 238.896 218.788 243.264 222.148C247.8 225.508 251.412 229.876 254.1 235.252C256.956 240.46 258.384 246.844 258.384 254.404C258.384 262.972 256.284 270.784 252.084 277.84C247.884 284.896 241.92 290.524 234.192 294.724C226.464 298.924 217.14 301.024 206.22 301.024Z" fill="white"/>
</svg>
