<svg width="428" height="533" viewBox="0 0 428 533" fill="none" xmlns="http://www.w3.org/2000/svg">
<path d="M225.223 223.428L151.459 255.473L65.079 492.049C64.738 492.983 65.605 493.908 66.559 493.627L133.869 473.82L172.455 532.288C173.003 533.119 174.264 532.971 174.605 532.036L260.984 295.463L225.223 223.428Z" fill="#25AEF2"/>
<path opacity="0.5" d="M225.223 223.428L151.459 255.473L65.079 492.049C64.738 492.983 65.605 493.908 66.559 493.627L133.869 473.82L172.455 532.288C173.003 533.119 174.264 532.971 174.605 532.036L260.984 295.463L225.223 223.428Z" fill="#25AEF2"/>
<path opacity="0.5" d="M248.888 271.099L213.82 281.126L199.128 464.875L260.984 295.463L248.888 271.099Z" fill="#1BAFDD"/>
<path d="M379.459 481.511L273.709 254.126L197.485 228.476L167.986 303.294L273.682 530.563C274.309 531.912 276.207 531.965 276.909 530.654L308.564 471.547L377.502 484.047C378.94 484.308 380.076 482.837 379.459 481.511Z" fill="#25AEF2"/>
<path opacity="0.3" d="M213.82 397.199C254.947 397.199 292.736 382.91 322.496 359.028L273.709 254.126L233.794 240.695L225.222 223.428L206.567 231.533L197.485 228.477L194.154 236.926L151.459 255.474L111.794 364.108C140.444 384.922 175.698 397.199 213.82 397.199Z" fill="#1BAFDD"/>
<path d="M213.82 387.657C309.791 387.657 387.591 309.857 387.591 213.886C387.591 117.915 309.791 40.115 213.82 40.115C117.849 40.115 40.049 117.915 40.049 213.886C40.049 309.857 117.849 387.657 213.82 387.657Z" fill="#F8B805"/>
<path opacity="0.5" d="M44.837 218.674C44.837 122.703 122.637 44.903 218.608 44.903C265.376 44.903 307.824 63.384 339.061 93.435C307.446 60.571 263.024 40.115 213.82 40.115C117.849 40.115 40.049 117.915 40.049 213.886C40.049 263.089 60.504 307.51 93.367 339.125C63.317 307.888 44.837 265.441 44.837 218.674Z" fill="#F8B805"/>
<path opacity="0.5" d="M352.325 108.946C370.958 136.63 381.835 169.968 381.835 205.848C381.835 301.819 304.035 379.619 208.064 379.619C151.52 379.619 101.292 352.606 69.559 310.788C100.765 357.153 153.729 387.656 213.82 387.656C309.791 387.656 387.591 309.856 387.591 213.885C387.591 174.458 374.452 138.105 352.325 108.946Z" fill="#F8B805"/>
<path opacity="0.5" d="M320.703 320.772C379.735 261.741 379.735 166.031 320.703 106.999C261.671 47.9672 165.962 47.9672 106.93 106.999C47.8978 166.031 47.8978 261.741 106.93 320.772C165.962 379.804 261.671 379.804 320.703 320.772Z" fill="#F8B805"/>
<path d="M314.319 314.388C369.824 258.882 369.824 168.889 314.319 113.383C258.813 57.8776 168.82 57.8776 113.314 113.383C57.8082 168.889 57.8082 258.882 113.314 314.388C168.82 369.894 258.813 369.894 314.319 314.388Z" fill="#F8B805"/>
<path d="M307.986 308.055C359.994 256.047 359.994 171.725 307.986 119.716C255.977 67.708 171.655 67.708 119.647 119.716C67.6385 171.725 67.6385 256.047 119.647 308.055C171.655 360.064 255.977 360.064 307.986 308.055Z" fill="#F8B805"/>
<g opacity="0.5">
<path d="M218.669 321.182C221.035 323.879 223.542 326.558 226.188 329.207C227.577 330.574 229.395 331.585 231.515 332.286C232.572 332.624 233.712 332.922 234.888 333.06C236.063 333.194 237.291 333.242 238.548 333.205C239.802 333.155 241.1 333.076 242.375 332.81C243.652 332.549 244.933 332.204 246.195 331.777C248.735 330.975 251.112 329.603 253.242 328.045C250.041 325.98 247.009 323.958 244.051 321.701C242.493 320.519 240.638 319.666 238.632 319.13C236.624 318.593 234.42 318.221 232.191 318.239C229.96 318.254 227.631 318.369 225.365 318.921C223.084 319.408 220.814 320.087 218.669 321.182Z" fill="#F8B805"/>
<path d="M238.659 305.547C239.555 302.15 240.242 298.61 240.827 295.238C236.735 295.127 232.887 296.297 229.585 298.21C226.324 300.222 223.568 302.925 222.191 306.457C220.869 309.681 219.403 312.936 217.791 316.211C220.018 316.643 222.362 316.745 224.625 316.446C226.872 316.059 229.073 315.443 231.004 314.412C232.929 313.356 234.641 312.117 235.95 310.594C237.254 309.048 238.19 307.345 238.659 305.547Z" fill="#F8B805"/>
<path d="M243.184 315.298C245.811 317.298 248.554 319.257 251.411 321.168C252.923 322.193 254.724 322.747 256.753 323.008C257.765 323.132 258.827 323.168 259.921 323.12C261.011 323.063 262.107 322.865 263.227 322.615C264.344 322.358 265.473 322.019 266.591 321.604C267.709 321.188 268.775 320.618 269.832 320.021C270.883 319.413 271.902 318.736 272.868 317.996C273.816 317.227 274.695 316.37 275.507 315.474C273.906 314.824 272.33 314.156 270.78 313.472C269.22 312.771 267.665 312.017 266.149 311.267C264.543 310.466 262.739 310.043 260.828 309.891C258.894 309.697 256.87 309.81 254.859 310.216C252.821 310.566 250.766 311.147 248.816 312.046C246.831 312.862 244.92 313.925 243.184 315.298Z" fill="#F8B805"/>
<path d="M258.499 297.576C258.605 295.938 258.698 294.342 258.737 292.715C258.768 291.076 258.773 289.454 258.751 287.85C257.812 288.007 256.905 288.243 256.035 288.551C255.142 288.82 254.279 289.151 253.459 289.554C252.636 289.95 251.864 290.433 251.116 290.936C250.356 291.416 249.641 291.956 248.976 292.549C248.309 293.139 247.698 293.794 247.133 294.473C246.555 295.123 246.034 295.82 245.578 296.556C244.661 298.016 244.024 299.687 243.693 301.343C243.074 304.501 242.342 307.725 241.48 310.961C243.581 310.967 245.698 310.584 247.704 309.941C249.669 309.195 251.521 308.183 253.112 306.966C254.668 305.67 255.973 304.195 256.917 302.629C257.843 301.034 258.379 299.287 258.499 297.576Z" fill="#F8B805"/>
<path d="M265.767 304.75C268.485 306.068 271.291 307.334 274.183 308.542C275.722 309.201 277.421 309.378 279.274 309.261C281.112 309.124 283.101 308.687 284.973 307.816C288.79 306.176 292.406 303.16 294.699 299.425C291.66 298.813 288.565 297.982 285.615 297.16C282.515 296.322 278.784 296.712 275.322 298.131C273.542 298.779 271.818 299.686 270.227 300.833C268.59 301.91 267.074 303.212 265.767 304.75Z" fill="#F8B805"/>
<path d="M276.442 286.14C276.076 283.137 275.686 280.268 275.094 277.329C271.791 278.543 269.021 280.689 266.987 283.284C266.005 284.628 265.155 286.007 264.586 287.502C264.009 288.983 263.728 290.609 263.717 292.148C263.718 295.102 263.63 298.115 263.451 301.183C265.331 300.793 267.167 300.08 268.85 299.14C270.488 298.13 271.959 296.877 273.18 295.511C275.542 292.652 276.854 289.327 276.442 286.14Z" fill="#F8B805"/>
<path d="M286.277 289.466C288.938 290.144 291.677 290.783 294.444 291.33C295.885 291.601 297.457 291.497 299.067 291.068C300.683 290.645 302.335 289.895 303.839 288.813C306.934 286.729 309.57 283.445 310.994 279.79C308.16 279.709 305.304 279.505 302.54 279.265C299.651 279.045 296.387 280.015 293.57 281.89C292.116 282.79 290.729 283.885 289.518 285.184C288.313 286.488 287.151 287.863 286.277 289.466Z" fill="#F8B805"/>
<path d="M292.502 271.019C291.669 268.4 290.832 265.888 289.852 263.374C287.061 265.015 284.959 267.463 283.562 270.144C283.221 270.82 282.947 271.532 282.709 272.238C282.458 272.931 282.266 273.641 282.139 274.358C281.884 275.792 281.884 277.257 282.184 278.668C282.722 281.311 283.165 283.981 283.562 286.729C285.162 286.036 286.712 285.118 287.993 283.932C289.268 282.74 290.366 281.378 291.211 279.946C292.789 276.967 293.414 273.801 292.502 271.019Z" fill="#F8B805"/>
<path d="M302.64 271.198C305.099 271.334 307.625 271.435 310.139 271.446C312.738 271.429 315.639 270.061 317.96 267.709C319.113 266.531 320.158 265.139 321.016 263.621C321.808 262.066 322.411 260.386 322.747 258.678C320.216 259.028 317.714 259.317 315.244 259.547C312.628 259.789 309.938 261.187 307.766 263.302C306.625 264.328 305.602 265.534 304.754 266.88C303.926 268.239 303.13 269.64 302.64 271.198Z" fill="#F8B805"/>
<path d="M305.065 253.891C303.911 251.708 302.724 249.587 301.507 247.529C297.228 251.413 295.225 257.577 297.188 262.399C298.116 264.649 298.952 266.918 299.776 269.265C301.067 268.377 302.284 267.309 303.199 266.039C304.12 264.772 304.853 263.384 305.358 261.979C306.275 259.103 306.266 256.177 305.065 253.891Z" fill="#F8B805"/>
<path d="M314.796 250.819C316.958 250.531 319.143 250.195 321.349 249.81C323.646 249.397 325.827 247.712 327.544 245.356C328.359 244.164 329.013 242.79 329.502 241.344C329.744 240.62 329.941 239.877 330.085 239.125C330.198 238.363 330.257 237.592 330.259 236.825C328.142 237.511 326.031 238.143 323.862 238.699C319.332 239.94 315.635 245.201 314.796 250.819Z" fill="#F8B805"/>
<path d="M314.122 235.344C312.841 233.635 311.46 231.95 310.06 230.318C309.658 230.83 309.303 231.37 308.997 231.931C308.673 232.486 308.372 233.054 308.133 233.641C307.646 234.812 307.356 236.044 307.245 237.275C306.913 239.689 307.373 242.149 308.612 244.066C309.758 245.866 310.884 247.717 311.985 249.618C312.97 248.634 313.805 247.484 314.444 246.251C315.03 244.995 315.433 243.665 315.636 242.354C315.735 241.698 315.794 241.051 315.782 240.413C315.754 239.768 315.675 239.141 315.543 238.54C315.281 237.339 314.81 236.249 314.122 235.344Z" fill="#F8B805"/>
<path d="M322.586 229.646C324.376 229.058 326.177 228.43 327.987 227.764C328.941 227.413 329.838 226.806 330.642 226.004C331.419 225.197 332.069 224.188 332.601 223.059C333.121 221.929 333.544 220.683 333.732 219.384C333.9 218.081 333.9 216.738 333.702 215.436C331.962 216.309 330.227 217.143 328.498 217.936C326.711 218.782 325.075 220.478 324.071 222.578C323.814 223.103 323.595 223.654 323.406 224.222C323.193 224.785 323.017 225.367 322.881 225.962C322.61 227.153 322.502 228.396 322.586 229.646Z" fill="#F8B805"/>
<path d="M319.665 216.471C318.269 215.177 316.866 213.925 315.458 212.714C314.893 213.716 314.508 214.789 314.294 215.883C314.074 216.977 313.934 218.076 314.009 219.158C314.071 220.236 314.304 221.289 314.683 222.255C315.025 223.212 315.532 224.087 316.204 224.812C317.478 226.188 318.742 227.604 319.995 229.06C320.67 228.059 321.183 226.938 321.529 225.781C321.886 224.627 322.054 223.432 321.985 222.268C321.872 219.945 321.169 217.837 319.665 216.471Z" fill="#F8B805"/>
<path d="M325.811 212.723C327.29 212.023 328.686 211.283 330.133 210.521C331.635 209.717 332.861 208.081 333.512 206.085C334.106 204.088 334.229 201.743 333.629 199.612C332.272 200.516 330.848 201.39 329.461 202.235C327.978 203.128 326.914 204.736 326.264 206.612C325.563 208.486 325.405 210.647 325.811 212.723Z" fill="#F8B805"/>
<path d="M321.858 201.928C320.556 200.98 319.3 200.063 317.958 199.173C317.218 201.001 317.024 203.001 317.416 204.832C317.76 206.657 318.551 208.312 319.873 209.391C321.101 210.409 322.384 211.464 323.558 212.536C324.502 210.693 324.733 208.519 324.47 206.582C324.164 204.638 323.205 202.924 321.858 201.928Z" fill="#F8B805"/>
<path d="M324.184 181.114C323.296 182.232 322.61 183.731 322.198 185.455C321.825 187.178 321.58 189.136 321.678 191.208C321.72 192.244 321.892 193.242 322.048 194.193C322.205 195.144 322.435 196.047 322.728 196.886C323.312 198.564 324.167 199.993 325.085 201.022C326.16 200.063 326.974 198.636 327.559 196.89C327.851 196.018 328.081 195.066 328.237 194.059C328.393 193.052 328.388 191.99 328.343 190.897C328.24 188.709 327.807 186.681 327.008 185.003C326.249 183.32 325.273 181.978 324.184 181.114Z" fill="#F8B805"/>
</g>
<g opacity="0.5">
<path d="M208.97 321.182C206.604 323.879 204.097 326.558 201.451 329.207C200.062 330.574 198.244 331.585 196.124 332.286C195.067 332.624 193.927 332.922 192.751 333.06C191.576 333.194 190.348 333.242 189.091 333.205C187.838 333.155 186.539 333.076 185.264 332.81C183.987 332.549 182.706 332.204 181.444 331.777C178.904 330.975 176.527 329.603 174.398 328.045C177.598 325.98 180.631 323.958 183.589 321.701C185.147 320.519 187.002 319.666 189.008 319.13C191.016 318.593 193.22 318.221 195.449 318.239C197.68 318.254 200.009 318.369 202.275 318.921C204.556 319.408 206.825 320.087 208.97 321.182Z" fill="#F8B805"/>
<path d="M188.98 305.547C188.084 302.15 187.397 298.61 186.812 295.238C190.904 295.127 194.752 296.297 198.054 298.21C201.315 300.222 204.071 302.925 205.448 306.457C206.77 309.681 208.236 312.936 209.848 316.211C207.621 316.643 205.277 316.745 203.014 316.446C200.767 316.059 198.566 315.443 196.635 314.412C194.71 313.356 192.998 312.117 191.689 310.594C190.386 309.048 189.449 307.345 188.98 305.547Z" fill="#F8B805"/>
<path d="M184.456 315.298C181.829 317.298 179.086 319.257 176.229 321.168C174.717 322.193 172.916 322.747 170.887 323.008C169.875 323.132 168.813 323.168 167.719 323.12C166.629 323.063 165.533 322.865 164.412 322.615C163.295 322.358 162.166 322.019 161.048 321.604C159.93 321.188 158.864 320.618 157.807 320.021C156.756 319.413 155.737 318.736 154.771 317.996C153.823 317.227 152.945 316.37 152.132 315.474C153.734 314.824 155.309 314.156 156.859 313.472C158.419 312.771 159.974 312.017 161.49 311.267C163.096 310.466 164.9 310.043 166.811 309.891C168.745 309.697 170.769 309.81 172.78 310.216C174.818 310.566 176.873 311.147 178.823 312.046C180.809 312.862 182.719 313.925 184.456 315.298Z" fill="#F8B805"/>
<path d="M169.141 297.576C169.035 295.938 168.942 294.342 168.903 292.715C168.872 291.076 168.867 289.454 168.889 287.85C169.828 288.007 170.735 288.243 171.606 288.551C172.499 288.82 173.362 289.151 174.182 289.554C175.005 289.95 175.777 290.433 176.525 290.936C177.285 291.416 178 291.956 178.665 292.549C179.332 293.139 179.943 293.794 180.508 294.473C181.086 295.123 181.607 295.82 182.064 296.556C182.981 298.016 183.618 299.687 183.949 301.343C184.568 304.501 185.3 307.725 186.162 310.961C184.061 310.967 181.944 310.584 179.938 309.941C177.973 309.195 176.121 308.183 174.53 306.966C172.974 305.67 171.669 304.195 170.725 302.629C169.796 301.034 169.26 299.287 169.141 297.576Z" fill="#F8B805"/>
<path d="M161.872 304.75C159.154 306.068 156.348 307.334 153.456 308.542C151.917 309.201 150.218 309.378 148.365 309.261C146.527 309.124 144.539 308.687 142.666 307.816C138.849 306.176 135.233 303.16 132.94 299.425C135.979 298.813 139.074 297.982 142.024 297.16C145.124 296.322 148.855 296.712 152.316 298.131C154.096 298.779 155.82 299.686 157.411 300.833C159.049 301.91 160.565 303.212 161.872 304.75Z" fill="#F8B805"/>
<path d="M151.197 286.14C151.563 283.137 151.953 280.268 152.544 277.329C155.847 278.543 158.617 280.689 160.651 283.284C161.632 284.628 162.483 286.007 163.052 287.502C163.629 288.983 163.909 290.609 163.921 292.148C163.92 295.102 164.008 298.115 164.187 301.183C162.307 300.793 160.47 300.08 158.788 299.14C157.151 298.13 155.679 296.877 154.458 295.511C152.098 292.652 150.785 289.327 151.197 286.14Z" fill="#F8B805"/>
<path d="M141.362 289.466C138.701 290.144 135.962 290.783 133.195 291.33C131.753 291.601 130.182 291.497 128.572 291.068C126.956 290.645 125.305 289.895 123.8 288.813C120.705 286.729 118.069 283.445 116.645 279.79C119.479 279.709 122.335 279.505 125.099 279.265C127.988 279.045 131.252 280.015 134.069 281.89C135.523 282.79 136.91 283.885 138.121 285.184C139.327 286.488 140.489 287.863 141.362 289.466Z" fill="#F8B805"/>
<path d="M135.137 271.019C135.97 268.4 136.806 265.888 137.786 263.374C140.577 265.015 142.679 267.463 144.076 270.144C144.417 270.82 144.691 271.532 144.929 272.238C145.18 272.931 145.372 273.641 145.499 274.358C145.754 275.792 145.754 277.257 145.454 278.668C144.916 281.311 144.473 283.981 144.076 286.729C142.476 286.036 140.926 285.118 139.645 283.932C138.37 282.74 137.272 281.378 136.427 279.946C134.85 276.967 134.225 273.801 135.137 271.019Z" fill="#F8B805"/>
<path d="M125 271.198C122.541 271.334 120.015 271.435 117.501 271.446C114.902 271.429 112.001 270.061 109.68 267.709C108.527 266.531 107.482 265.139 106.624 263.621C105.832 262.066 105.229 260.386 104.893 258.678C107.424 259.028 109.926 259.317 112.396 259.547C115.012 259.789 117.702 261.187 119.874 263.302C121.015 264.328 122.038 265.534 122.886 266.88C123.714 268.239 124.509 269.64 125 271.198Z" fill="#F8B805"/>
<path d="M122.575 253.891C123.729 251.708 124.916 249.587 126.133 247.529C130.412 251.413 132.415 257.577 130.452 262.399C129.524 264.649 128.688 266.918 127.864 269.265C126.573 268.377 125.357 267.309 124.441 266.039C123.52 264.772 122.787 263.384 122.282 261.979C121.364 259.103 121.373 256.177 122.575 253.891Z" fill="#F8B805"/>
<path d="M112.843 250.819C110.681 250.531 108.496 250.195 106.29 249.81C103.993 249.397 101.812 247.712 100.095 245.356C99.28 244.164 98.626 242.79 98.137 241.344C97.895 240.62 97.698 239.877 97.554 239.125C97.441 238.363 97.382 237.592 97.38 236.825C99.497 237.511 101.608 238.143 103.777 238.699C108.308 239.94 112.004 245.201 112.843 250.819Z" fill="#F8B805"/>
<path d="M113.517 235.344C114.798 233.635 116.179 231.95 117.579 230.318C117.981 230.83 118.336 231.37 118.642 231.931C118.967 232.486 119.267 233.054 119.506 233.641C119.992 234.812 120.283 236.044 120.394 237.275C120.726 239.689 120.266 242.149 119.027 244.066C117.881 245.866 116.755 247.717 115.654 249.618C114.669 248.634 113.834 247.484 113.195 246.251C112.609 244.995 112.206 243.665 112.003 242.354C111.904 241.698 111.845 241.051 111.857 240.413C111.885 239.768 111.964 239.141 112.096 238.54C112.358 237.339 112.83 236.249 113.517 235.344Z" fill="#F8B805"/>
<path d="M105.053 229.646C103.263 229.058 101.462 228.43 99.652 227.764C98.698 227.413 97.802 226.806 96.997 226.004C96.22 225.197 95.57 224.188 95.038 223.059C94.518 221.929 94.095 220.683 93.907 219.384C93.739 218.081 93.739 216.738 93.937 215.436C95.677 216.309 97.412 217.143 99.141 217.936C100.928 218.782 102.564 220.478 103.568 222.578C103.825 223.103 104.044 223.654 104.233 224.222C104.446 224.785 104.622 225.367 104.758 225.962C105.03 227.153 105.138 228.396 105.053 229.646Z" fill="#F8B805"/>
<path d="M107.974 216.471C109.37 215.177 110.773 213.925 112.181 212.714C112.746 213.716 113.131 214.789 113.345 215.883C113.565 216.977 113.705 218.076 113.63 219.158C113.568 220.236 113.335 221.289 112.956 222.255C112.614 223.212 112.106 224.087 111.435 224.812C110.161 226.188 108.897 227.604 107.644 229.06C106.968 228.059 106.456 226.938 106.11 225.781C105.753 224.627 105.585 223.432 105.654 222.268C105.767 219.945 106.471 217.837 107.974 216.471Z" fill="#F8B805"/>
<path d="M101.829 212.723C100.35 212.023 98.954 211.283 97.507 210.521C96.005 209.717 94.779 208.081 94.128 206.085C93.534 204.088 93.411 201.743 94.011 199.612C95.368 200.516 96.792 201.39 98.179 202.235C99.662 203.128 100.726 204.736 101.376 206.612C102.077 208.486 102.234 210.647 101.829 212.723Z" fill="#F8B805"/>
<path d="M105.781 201.928C107.083 200.98 108.339 200.063 109.681 199.173C110.421 201.001 110.615 203.001 110.223 204.832C109.879 206.657 109.088 208.312 107.766 209.391C106.538 210.409 105.255 211.464 104.081 212.536C103.137 210.693 102.906 208.519 103.169 206.582C103.475 204.638 104.435 202.924 105.781 201.928Z" fill="#F8B805"/>
<path d="M103.456 181.114C104.344 182.232 105.03 183.731 105.442 185.455C105.814 187.178 106.06 189.136 105.962 191.208C105.92 192.244 105.748 193.242 105.592 194.193C105.435 195.144 105.205 196.047 104.912 196.886C104.328 198.564 103.473 199.993 102.555 201.022C101.48 200.063 100.666 198.636 100.081 196.89C99.789 196.018 99.56 195.066 99.404 194.059C99.248 193.052 99.253 191.99 99.298 190.897C99.401 188.709 99.834 186.681 100.633 185.003C101.391 183.32 102.367 181.978 103.456 181.114Z" fill="#F8B805"/>
</g>
<g opacity="0.8">
<path d="M201.469 269.738C198.91 267.494 197.632 263.979 197.632 259.188L197.834 256.719C199.314 241.307 201.096 225.257 203.185 208.569C205.271 191.884 207.053 179.051 208.536 170.071L192.787 175.009L190.364 175.458C187.805 175.458 185.786 174.336 184.306 172.091C182.823 169.846 182.085 167.302 182.085 164.458L182.287 162.438C182.555 159.596 183.363 157.275 184.71 155.479C186.054 153.683 188.648 151.887 192.484 150.092C196.32 148.296 202.075 146.353 209.748 144.255L218.228 142.011C221.323 141.263 223.881 140.889 225.901 140.889C229.804 140.889 232.731 142.011 234.685 144.256C236.635 146.501 237.612 149.643 237.612 153.684C237.612 155.48 237.41 157.426 237.006 159.521C234.851 171.193 230.747 204.416 224.689 259.188C223.61 268.469 218.834 273.105 210.353 273.105C206.987 273.106 204.025 271.983 201.469 269.738Z" fill="#F8B805"/>
</g>
<path opacity="0.4" d="M290.626 118.237L289.316 127.795L296.446 134.292L286.951 135.999L282.975 144.789L278.417 136.286L268.829 135.221L275.507 128.259L273.558 118.811L282.243 123.01L290.626 118.237Z" fill="#F8B805"/>
<path opacity="0.4" d="M254.297 100.345L256.004 109.839L264.793 113.816L256.291 118.374L255.225 127.962L248.263 121.283L238.815 123.233L243.015 114.548L238.242 106.165L247.799 107.475L254.297 100.345Z" fill="#F8B805"/>
<path opacity="0.4" d="M214.217 94.555L218.775 103.057L228.363 104.123L221.685 111.085L223.634 120.533L214.949 116.333L206.566 121.107L207.876 111.549L200.746 105.051L210.241 103.344L214.217 94.555Z" fill="#F8B805"/>
<path opacity="0.4" d="M174.309 101.433L181.272 108.111L190.719 106.162L186.52 114.847L191.293 123.23L181.736 121.919L175.238 129.05L173.531 119.555L164.741 115.579L173.244 111.021L174.309 101.433Z" fill="#F8B805"/>
<path opacity="0.4" d="M138.481 120.307L147.165 124.507L155.549 119.734L154.238 129.291L161.369 135.789L151.874 137.496L147.898 146.285L143.34 137.783L133.752 136.717L140.43 129.755L138.481 120.307Z" fill="#F8B805"/>
<path opacity="0.4" d="M131.208 153.236C131.208 150.591 129.064 148.446 126.418 148.446C123.773 148.446 121.629 150.59 121.629 153.236C121.629 155.881 123.773 158.025 126.418 158.025C129.064 158.025 131.208 155.881 131.208 153.236Z" fill="#F8B805"/>
<path opacity="0.4" d="M310.799 153.236C310.799 150.591 308.655 148.446 306.01 148.446C303.365 148.446 301.22 150.59 301.22 153.236C301.22 155.881 303.364 158.025 306.01 158.025C308.655 158.025 310.799 155.881 310.799 153.236Z" fill="#F8B805"/>
<path opacity="0.3" d="M213.82 80.709C210.806 80.709 207.819 80.819 204.855 81.016L80.95 204.921C80.753 207.885 80.643 210.872 80.643 213.886C80.643 236.458 86.266 257.713 96.176 276.341L276.275 96.242C257.647 86.332 236.391 80.709 213.82 80.709Z" fill="#F8B805"/>
<path opacity="0.3" d="M289.044 103.982L103.917 289.11C109.733 297.59 116.5 305.366 124.072 312.277L312.211 124.138C305.3 116.566 297.524 109.798 289.044 103.982Z" fill="#F8B805"/>
<path opacity="0.3" d="M346.997 213.885C346.997 207.264 346.506 200.757 345.573 194.395L194.329 345.639C200.692 346.572 207.198 347.063 213.82 347.063C228.539 347.063 242.697 344.67 255.934 340.26L340.194 256C344.603 242.762 346.997 228.604 346.997 213.885Z" fill="#F8B805"/>
<path d="M213.82 348.695C139.486 348.695 79.011 288.22 79.011 213.886C79.011 139.552 139.486 79.076 213.82 79.076C288.154 79.076 348.629 139.551 348.629 213.886C348.629 288.219 288.154 348.695 213.82 348.695ZM213.82 82.341C141.286 82.341 82.275 141.352 82.275 213.886C82.275 286.42 141.286 345.43 213.82 345.43C286.354 345.43 345.364 286.419 345.364 213.886C345.364 141.352 286.354 82.341 213.82 82.341Z" fill="#F8B805"/>
<g opacity="0.5">
<path d="M213.82 348.695C139.486 348.695 79.011 288.22 79.011 213.886C79.011 139.552 139.486 79.076 213.82 79.076C288.154 79.076 348.629 139.551 348.629 213.886C348.629 288.219 288.154 348.695 213.82 348.695ZM213.82 82.341C141.286 82.341 82.275 141.352 82.275 213.886C82.275 286.42 141.286 345.43 213.82 345.43C286.354 345.43 345.364 286.419 345.364 213.886C345.364 141.352 286.354 82.341 213.82 82.341Z" fill="#F8B805"/>
</g>
<path d="M131.907 127.783C114.534 121.62 109.78 116.623 103.917 98.362C98.053 116.624 93.3 121.62 75.926 127.783C93.299 133.947 98.053 138.943 103.917 157.204C109.78 138.943 114.534 133.947 131.907 127.783Z" fill="white"/>
<path d="M331.403 292.149C314.977 286.322 310.483 281.598 304.939 264.332C299.395 281.598 294.901 286.321 278.475 292.149C294.901 297.976 299.395 302.7 304.939 319.965C310.483 302.7 314.978 297.976 331.403 292.149Z" fill="white"/>
<path d="M344.467 319.965C336.359 317.088 334.14 314.757 331.403 306.233C328.666 314.756 326.448 317.088 318.339 319.965C326.448 322.842 328.666 325.173 331.403 333.697C334.14 325.174 336.359 322.842 344.467 319.965Z" fill="white"/>
<path d="M146.933 94.44C138.825 91.563 136.606 89.232 133.869 80.708C131.132 89.231 128.914 91.563 120.805 94.44C128.914 97.317 131.132 99.648 133.869 108.172C136.606 99.649 138.825 97.317 146.933 94.44Z" fill="white"/>
<path d="M203.416 298V172L174.94 182.08L168.892 163.18L210.724 141.004H231.892V298H203.416Z" fill="white"/>
</svg>
