<svg width="428" height="533" viewBox="0 0 428 533" fill="none" xmlns="http://www.w3.org/2000/svg">
<path d="M225.594 223.428L151.83 255.473L65.45 492.049C65.109 492.983 65.976 493.908 66.931 493.627L134.241 473.82L172.827 532.288C173.375 533.119 174.636 532.971 174.977 532.036L261.356 295.463L225.594 223.428Z" fill="#25AEF2"/>
<path opacity="0.5" d="M225.594 223.428L151.83 255.473L65.45 492.049C65.109 492.983 65.976 493.908 66.931 493.627L134.241 473.82L172.827 532.288C173.375 533.119 174.636 532.971 174.977 532.036L261.356 295.463L225.594 223.428Z" fill="#25AEF2"/>
<path opacity="0.5" d="M249.259 271.099L214.191 281.126L199.498 464.875L261.355 295.463L249.259 271.099Z" fill="#1BAFDD"/>
<path d="M379.83 481.511L274.08 254.126L197.856 228.476L168.357 303.294L274.052 530.563C274.679 531.912 276.577 531.965 277.279 530.654L308.934 471.547L377.872 484.047C379.311 484.308 380.447 482.837 379.83 481.511Z" fill="#25AEF2"/>
<path opacity="0.3" d="M214.191 397.199C255.318 397.199 293.107 382.91 322.867 359.028L274.08 254.126L234.165 240.695L225.593 223.428L206.938 231.533L197.856 228.477L194.525 236.926L151.83 255.474L112.165 364.108C140.815 384.922 176.069 397.199 214.191 397.199Z" fill="#1BAFDD"/>
<path d="M214.191 387.657C310.162 387.657 387.962 309.857 387.962 213.886C387.962 117.915 310.162 40.115 214.191 40.115C118.22 40.115 40.42 117.915 40.42 213.886C40.42 309.857 118.22 387.657 214.191 387.657Z" fill="#C2D0D3"/>
<path opacity="0.5" d="M45.208 218.674C45.208 122.703 123.008 44.903 218.979 44.903C265.747 44.903 308.195 63.384 339.432 93.435C307.817 60.571 263.395 40.115 214.191 40.115C118.22 40.115 40.42 117.915 40.42 213.886C40.42 263.089 60.875 307.51 93.738 339.125C63.688 307.888 45.208 265.441 45.208 218.674Z" fill="#C2D0D3"/>
<path opacity="0.5" d="M352.696 108.946C371.329 136.63 382.206 169.968 382.206 205.848C382.206 301.819 304.406 379.619 208.435 379.619C151.891 379.619 101.663 352.606 69.93 310.788C101.136 357.153 154.1 387.656 214.191 387.656C310.162 387.656 387.962 309.856 387.962 213.885C387.961 174.458 374.823 138.105 352.696 108.946Z" fill="#C2D0D3"/>
<path opacity="0.5" d="M321.071 320.776C380.103 261.744 380.103 166.034 321.071 107.002C262.039 47.9704 166.329 47.9704 107.298 107.002C48.2657 166.034 48.2657 261.744 107.298 320.776C166.329 379.807 262.039 379.807 321.071 320.776Z" fill="#C2D0D3"/>
<path d="M314.686 314.391C370.192 258.885 370.192 168.893 314.686 113.387C259.181 57.8808 169.188 57.8808 113.682 113.387C58.1761 168.893 58.1761 258.885 113.682 314.391C169.188 369.897 259.181 369.897 314.686 314.391Z" fill="#C2D0D3"/>
<path d="M308.354 308.058C360.362 256.05 360.362 171.728 308.354 119.719C256.345 67.7111 172.023 67.7111 120.015 119.719C68.0064 171.728 68.0064 256.05 120.015 308.058C172.023 360.067 256.345 360.067 308.354 308.058Z" fill="#C2D0D3"/>
<g opacity="0.5">
<path d="M219.04 319.832C221.406 322.529 223.913 325.208 226.559 327.857C227.948 329.223 229.766 330.235 231.886 330.936C232.943 331.274 234.083 331.572 235.259 331.71C236.434 331.844 237.662 331.892 238.919 331.855C240.172 331.805 241.471 331.726 242.746 331.46C244.023 331.199 245.304 330.854 246.566 330.427C249.106 329.625 251.483 328.253 253.613 326.695C250.412 324.63 247.38 322.608 244.422 320.351C242.864 319.169 241.009 318.316 239.003 317.78C236.995 317.243 234.791 316.871 232.562 316.889C230.331 316.904 228.002 317.019 225.736 317.571C223.455 318.058 221.185 318.737 219.04 319.832Z" fill="#C2D0D3"/>
<path d="M239.03 304.197C239.926 300.8 240.613 297.26 241.198 293.888C237.106 293.777 233.258 294.947 229.956 296.86C226.695 298.872 223.94 301.575 222.562 305.107C221.24 308.331 219.774 311.586 218.162 314.861C220.389 315.293 222.733 315.395 224.996 315.096C227.243 314.709 229.444 314.093 231.375 313.062C233.3 312.006 235.012 310.767 236.321 309.244C237.625 307.699 238.561 305.996 239.03 304.197Z" fill="#C2D0D3"/>
<path d="M243.555 313.949C246.182 315.949 248.925 317.908 251.782 319.819C253.294 320.844 255.095 321.397 257.124 321.658C258.136 321.782 259.198 321.818 260.292 321.77C261.382 321.713 262.478 321.515 263.599 321.265C264.716 321.008 265.845 320.669 266.963 320.254C268.08 319.838 269.147 319.269 270.204 318.671C271.255 318.063 272.274 317.386 273.24 316.646C274.188 315.877 275.067 315.02 275.879 314.124C274.277 313.474 272.702 312.806 271.152 312.122C269.592 311.421 268.037 310.667 266.521 309.917C264.915 309.116 263.111 308.693 261.2 308.541C259.266 308.347 257.242 308.46 255.231 308.866C253.193 309.216 251.138 309.797 249.188 310.696C247.201 311.512 245.291 312.575 243.555 313.949Z" fill="#C2D0D3"/>
<path d="M258.87 296.227C258.976 294.589 259.069 292.993 259.108 291.366C259.139 289.727 259.144 288.105 259.122 286.501C258.183 286.658 257.276 286.894 256.406 287.202C255.513 287.471 254.65 287.802 253.83 288.205C253.007 288.601 252.235 289.084 251.486 289.587C250.726 290.067 250.011 290.607 249.346 291.2C248.679 291.79 248.068 292.445 247.503 293.124C246.925 293.774 246.404 294.471 245.947 295.207C245.03 296.667 244.393 298.338 244.062 299.994C243.443 303.152 242.711 306.376 241.849 309.612C243.95 309.618 246.067 309.235 248.073 308.592C250.038 307.846 251.89 306.834 253.481 305.617C255.037 304.321 256.343 302.846 257.286 301.28C258.214 299.685 258.75 297.938 258.87 296.227Z" fill="#C2D0D3"/>
<path d="M266.138 303.401C268.856 304.719 271.662 305.985 274.554 307.193C276.093 307.852 277.792 308.029 279.645 307.912C281.483 307.775 283.471 307.338 285.344 306.467C289.161 304.827 292.777 301.811 295.07 298.076C292.032 297.464 288.936 296.633 285.986 295.811C282.886 294.973 279.155 295.363 275.694 296.782C273.914 297.43 272.19 298.337 270.599 299.484C268.961 300.56 267.445 301.862 266.138 303.401Z" fill="#C2D0D3"/>
<path d="M276.813 284.791C276.447 281.788 276.057 278.919 275.466 275.98C272.163 277.195 269.393 279.34 267.359 281.935C266.378 283.279 265.527 284.658 264.958 286.154C264.381 287.635 264.101 289.261 264.089 290.8C264.09 293.754 264.002 296.767 263.823 299.835C265.703 299.445 267.54 298.732 269.222 297.791C270.86 296.781 272.331 295.528 273.552 294.162C275.912 291.303 277.225 287.977 276.813 284.791Z" fill="#C2D0D3"/>
<path d="M286.648 288.117C289.308 288.795 292.048 289.434 294.815 289.981C296.256 290.252 297.827 290.148 299.438 289.719C301.054 289.296 302.706 288.546 304.21 287.464C307.305 285.38 309.941 282.096 311.365 278.441C308.531 278.36 305.675 278.156 302.911 277.916C300.022 277.696 296.758 278.666 293.941 280.541C292.487 281.441 291.1 282.536 289.889 283.835C288.684 285.139 287.521 286.513 286.648 288.117Z" fill="#C2D0D3"/>
<path d="M292.873 269.669C292.04 267.05 291.203 264.538 290.224 262.024C287.433 263.665 285.331 266.113 283.934 268.794C283.593 269.47 283.319 270.182 283.081 270.888C282.83 271.581 282.638 272.291 282.511 273.008C282.257 274.442 282.256 275.907 282.556 277.318C283.094 279.961 283.537 282.631 283.934 285.379C285.534 284.686 287.084 283.768 288.365 282.582C289.64 281.39 290.738 280.028 291.583 278.596C293.16 275.617 293.785 272.452 292.873 269.669Z" fill="#C2D0D3"/>
<path d="M303.011 269.849C305.47 269.985 307.996 270.086 310.51 270.097C313.109 270.08 316.01 268.712 318.331 266.36C319.484 265.182 320.529 263.79 321.387 262.272C322.179 260.717 322.782 259.037 323.118 257.329C320.587 257.679 318.085 257.968 315.615 258.198C312.999 258.44 310.309 259.838 308.137 261.953C306.996 262.979 305.973 264.185 305.125 265.531C304.296 266.89 303.501 268.291 303.011 269.849Z" fill="#C2D0D3"/>
<path d="M305.435 252.541C304.281 250.358 303.094 248.237 301.877 246.179C297.598 250.063 295.595 256.227 297.558 261.049C298.486 263.299 299.322 265.568 300.146 267.915C301.437 267.027 302.654 265.959 303.569 264.689C304.49 263.422 305.224 262.034 305.728 260.629C306.646 257.754 306.637 254.828 305.435 252.541Z" fill="#C2D0D3"/>
<path d="M315.167 249.47C317.329 249.182 319.514 248.846 321.72 248.461C324.017 248.048 326.198 246.363 327.915 244.007C328.73 242.815 329.384 241.441 329.873 239.995C330.115 239.271 330.312 238.528 330.456 237.776C330.569 237.014 330.628 236.243 330.63 235.476C328.513 236.162 326.402 236.794 324.233 237.35C319.703 238.591 316.006 243.852 315.167 249.47Z" fill="#C2D0D3"/>
<path d="M314.493 233.995C313.212 232.286 311.831 230.601 310.431 228.969C310.028 229.481 309.674 230.021 309.368 230.582C309.043 231.137 308.743 231.705 308.504 232.292C308.017 233.463 307.726 234.695 307.616 235.926C307.284 238.34 307.744 240.8 308.983 242.717C310.129 244.517 311.255 246.368 312.356 248.269C313.341 247.285 314.176 246.135 314.815 244.902C315.401 243.646 315.804 242.315 316.007 241.005C316.106 240.349 316.165 239.702 316.153 239.064C316.125 238.419 316.046 237.792 315.914 237.191C315.652 235.99 315.181 234.9 314.493 233.995Z" fill="#C2D0D3"/>
<path d="M322.957 228.297C324.747 227.709 326.548 227.081 328.358 226.415C329.312 226.064 330.209 225.457 331.013 224.655C331.79 223.848 332.44 222.839 332.972 221.71C333.492 220.58 333.915 219.334 334.103 218.035C334.271 216.732 334.271 215.388 334.073 214.087C332.333 214.96 330.598 215.794 328.87 216.587C327.083 217.433 325.447 219.129 324.443 221.229C324.186 221.754 323.967 222.305 323.778 222.873C323.565 223.436 323.389 224.018 323.253 224.613C322.981 225.803 322.873 227.046 322.957 228.297Z" fill="#C2D0D3"/>
<path d="M320.036 215.121C318.64 213.827 317.237 212.575 315.829 211.364C315.264 212.366 314.879 213.439 314.665 214.533C314.445 215.627 314.305 216.726 314.38 217.808C314.442 218.886 314.675 219.939 315.054 220.905C315.396 221.862 315.903 222.737 316.575 223.462C317.849 224.837 319.113 226.254 320.366 227.711C321.041 226.71 321.554 225.589 321.9 224.432C322.257 223.278 322.425 222.083 322.356 220.919C322.243 218.595 321.54 216.488 320.036 215.121Z" fill="#C2D0D3"/>
<path d="M326.182 211.374C327.661 210.674 329.057 209.934 330.504 209.172C332.006 208.368 333.232 206.732 333.883 204.736C334.477 202.739 334.6 200.394 334 198.263C332.643 199.167 331.219 200.041 329.833 200.886C328.35 201.779 327.286 203.387 326.636 205.263C325.934 207.137 325.776 209.297 326.182 211.374Z" fill="#C2D0D3"/>
<path d="M322.229 200.579C320.927 199.631 319.671 198.714 318.329 197.824C317.589 199.652 317.395 201.652 317.787 203.483C318.131 205.308 318.921 206.963 320.244 208.042C321.472 209.06 322.755 210.115 323.929 211.187C324.873 209.345 325.104 207.17 324.841 205.233C324.535 203.289 323.576 201.575 322.229 200.579Z" fill="#C2D0D3"/>
<path d="M324.554 179.764C323.666 180.882 322.98 182.381 322.568 184.105C322.195 185.828 321.95 187.787 322.048 189.858C322.09 190.894 322.262 191.892 322.418 192.843C322.575 193.794 322.805 194.697 323.098 195.536C323.682 197.214 324.537 198.643 325.455 199.672C326.53 198.713 327.344 197.286 327.929 195.54C328.221 194.668 328.45 193.716 328.606 192.709C328.762 191.702 328.757 190.641 328.712 189.547C328.609 187.359 328.176 185.33 327.377 183.653C326.619 181.971 325.644 180.628 324.554 179.764Z" fill="#C2D0D3"/>
</g>
<g opacity="0.5">
<path d="M209.341 319.832C206.975 322.529 204.468 325.208 201.822 327.857C200.433 329.223 198.615 330.235 196.495 330.936C195.438 331.274 194.298 331.572 193.122 331.71C191.947 331.844 190.719 331.892 189.462 331.855C188.209 331.805 186.91 331.726 185.635 331.46C184.358 331.199 183.077 330.854 181.815 330.427C179.275 329.625 176.898 328.253 174.768 326.695C177.969 324.63 181.001 322.608 183.959 320.351C185.517 319.169 187.372 318.316 189.378 317.78C191.386 317.243 193.59 316.871 195.819 316.889C198.05 316.904 200.379 317.019 202.645 317.571C204.927 318.058 207.196 318.737 209.341 319.832Z" fill="#C2D0D3"/>
<path d="M189.351 304.197C188.455 300.8 187.768 297.26 187.183 293.888C191.275 293.777 195.123 294.947 198.425 296.86C201.686 298.872 204.441 301.575 205.819 305.107C207.141 308.331 208.607 311.586 210.219 314.861C207.992 315.293 205.648 315.395 203.385 315.096C201.138 314.709 198.937 314.093 197.006 313.062C195.081 312.006 193.369 310.767 192.06 309.244C190.757 307.699 189.82 305.996 189.351 304.197Z" fill="#C2D0D3"/>
<path d="M184.826 313.949C182.199 315.949 179.456 317.908 176.599 319.819C175.087 320.844 173.286 321.397 171.257 321.658C170.246 321.782 169.183 321.818 168.089 321.77C166.999 321.713 165.903 321.515 164.782 321.265C163.665 321.008 162.536 320.669 161.418 320.254C160.301 319.838 159.234 319.269 158.177 318.671C157.126 318.063 156.107 317.386 155.141 316.646C154.193 315.877 153.314 315.02 152.502 314.124C154.104 313.474 155.679 312.806 157.229 312.122C158.789 311.421 160.344 310.667 161.861 309.917C163.467 309.116 165.271 308.693 167.182 308.541C169.116 308.347 171.14 308.46 173.151 308.866C175.189 309.216 177.244 309.797 179.194 310.696C181.18 311.512 183.09 312.575 184.826 313.949Z" fill="#C2D0D3"/>
<path d="M169.512 296.227C169.406 294.589 169.313 292.993 169.274 291.366C169.242 289.727 169.238 288.105 169.26 286.501C170.199 286.658 171.106 286.894 171.976 287.202C172.869 287.471 173.732 287.802 174.552 288.205C175.375 288.601 176.147 289.084 176.896 289.587C177.656 290.067 178.371 290.607 179.036 291.2C179.703 291.79 180.314 292.445 180.879 293.124C181.457 293.774 181.978 294.471 182.435 295.207C183.352 296.667 183.989 298.338 184.32 299.994C184.939 303.152 185.671 306.376 186.533 309.612C184.432 309.618 182.315 309.235 180.309 308.592C178.344 307.846 176.492 306.834 174.901 305.617C173.345 304.321 172.04 302.846 171.096 301.28C170.167 299.685 169.631 297.938 169.512 296.227Z" fill="#C2D0D3"/>
<path d="M162.243 303.401C159.525 304.719 156.719 305.985 153.827 307.193C152.288 307.852 150.589 308.029 148.736 307.912C146.898 307.775 144.91 307.338 143.037 306.467C139.22 304.827 135.604 301.811 133.311 298.076C136.35 297.464 139.445 296.633 142.395 295.811C145.495 294.973 149.226 295.363 152.687 296.782C154.467 297.43 156.191 298.337 157.782 299.484C159.42 300.56 160.936 301.862 162.243 303.401Z" fill="#C2D0D3"/>
<path d="M151.568 284.791C151.934 281.788 152.324 278.919 152.915 275.98C156.218 277.195 158.988 279.34 161.022 281.935C162.003 283.279 162.853 284.658 163.423 286.154C164 287.635 164.28 289.261 164.292 290.8C164.291 293.754 164.379 296.767 164.558 299.835C162.678 299.445 160.842 298.732 159.159 297.791C157.521 296.781 156.05 295.528 154.829 294.162C152.469 291.303 151.156 287.977 151.568 284.791Z" fill="#C2D0D3"/>
<path d="M141.733 288.117C139.073 288.795 136.333 289.434 133.566 289.981C132.124 290.252 130.553 290.148 128.943 289.719C127.327 289.296 125.675 288.546 124.171 287.464C121.076 285.38 118.44 282.096 117.016 278.441C119.85 278.36 122.706 278.156 125.47 277.916C128.359 277.696 131.623 278.666 134.44 280.541C135.894 281.441 137.281 282.536 138.492 283.835C139.698 285.139 140.86 286.513 141.733 288.117Z" fill="#C2D0D3"/>
<path d="M135.508 269.669C136.341 267.05 137.177 264.538 138.157 262.024C140.948 263.665 143.05 266.113 144.447 268.794C144.788 269.47 145.062 270.182 145.3 270.888C145.551 271.581 145.743 272.291 145.87 273.008C146.124 274.442 146.125 275.907 145.825 277.318C145.287 279.961 144.844 282.631 144.447 285.379C142.847 284.686 141.297 283.768 140.016 282.582C138.741 281.39 137.643 280.028 136.798 278.596C135.221 275.617 134.596 272.452 135.508 269.669Z" fill="#C2D0D3"/>
<path d="M125.371 269.849C122.912 269.985 120.386 270.086 117.872 270.097C115.273 270.08 112.372 268.712 110.051 266.36C108.898 265.182 107.853 263.79 106.995 262.272C106.203 260.717 105.601 259.037 105.264 257.329C107.795 257.679 110.297 257.968 112.767 258.198C115.383 258.44 118.073 259.838 120.245 261.953C121.386 262.979 122.409 264.185 123.257 265.531C124.085 266.89 124.88 268.291 125.371 269.849Z" fill="#C2D0D3"/>
<path d="M122.946 252.541C124.1 250.358 125.287 248.237 126.504 246.179C130.783 250.063 132.786 256.227 130.823 261.049C129.895 263.299 129.059 265.568 128.235 267.915C126.944 267.027 125.727 265.959 124.812 264.689C123.891 263.422 123.158 262.034 122.653 260.629C121.735 257.754 121.744 254.828 122.946 252.541Z" fill="#C2D0D3"/>
<path d="M113.214 249.47C111.052 249.182 108.867 248.846 106.661 248.461C104.364 248.048 102.183 246.363 100.466 244.007C99.651 242.815 98.997 241.441 98.508 239.995C98.266 239.271 98.069 238.528 97.925 237.776C97.812 237.014 97.753 236.243 97.751 235.476C99.868 236.162 101.979 236.794 104.148 237.35C108.679 238.591 112.375 243.852 113.214 249.47Z" fill="#C2D0D3"/>
<path d="M113.888 233.995C115.169 232.286 116.55 230.601 117.95 228.969C118.352 229.481 118.707 230.021 119.013 230.582C119.338 231.137 119.638 231.705 119.877 232.292C120.364 233.463 120.655 234.695 120.765 235.926C121.097 238.34 120.637 240.8 119.398 242.717C118.251 244.517 117.126 246.368 116.025 248.269C115.04 247.285 114.205 246.135 113.566 244.902C112.98 243.646 112.577 242.315 112.374 241.005C112.275 240.349 112.216 239.702 112.228 239.064C112.256 238.419 112.335 237.792 112.467 237.191C112.729 235.99 113.201 234.9 113.888 233.995Z" fill="#C2D0D3"/>
<path d="M105.424 228.297C103.634 227.709 101.833 227.081 100.023 226.415C99.069 226.064 98.172 225.457 97.368 224.655C96.591 223.848 95.941 222.839 95.409 221.71C94.889 220.58 94.466 219.334 94.278 218.035C94.11 216.732 94.11 215.388 94.308 214.087C96.048 214.96 97.783 215.794 99.511 216.587C101.298 217.433 102.934 219.129 103.938 221.229C104.195 221.754 104.414 222.305 104.603 222.873C104.816 223.436 104.992 224.018 105.128 224.613C105.401 225.803 105.508 227.046 105.424 228.297Z" fill="#C2D0D3"/>
<path d="M108.345 215.121C109.741 213.827 111.144 212.575 112.552 211.364C113.117 212.366 113.502 213.439 113.716 214.533C113.936 215.627 114.076 216.726 114.001 217.808C113.939 218.886 113.706 219.939 113.327 220.905C112.985 221.862 112.478 222.737 111.806 223.462C110.532 224.837 109.268 226.254 108.015 227.711C107.34 226.71 106.827 225.589 106.481 224.432C106.124 223.278 105.956 222.083 106.025 220.919C106.138 218.595 106.842 216.488 108.345 215.121Z" fill="#C2D0D3"/>
<path d="M102.2 211.374C100.721 210.674 99.325 209.934 97.878 209.172C96.376 208.368 95.15 206.732 94.499 204.736C93.905 202.739 93.782 200.394 94.382 198.263C95.739 199.167 97.163 200.041 98.549 200.886C100.032 201.779 101.096 203.387 101.746 205.263C102.448 207.137 102.605 209.297 102.2 211.374Z" fill="#C2D0D3"/>
<path d="M106.152 200.579C107.454 199.631 108.71 198.714 110.052 197.824C110.792 199.652 110.986 201.652 110.594 203.483C110.25 205.308 109.46 206.963 108.137 208.042C106.909 209.06 105.626 210.115 104.452 211.187C103.508 209.345 103.277 207.17 103.54 205.233C103.846 203.289 104.806 201.575 106.152 200.579Z" fill="#C2D0D3"/>
<path d="M103.827 179.764C104.715 180.882 105.401 182.381 105.813 184.105C106.186 185.828 106.431 187.787 106.333 189.858C106.291 190.894 106.119 191.892 105.963 192.843C105.806 193.794 105.576 194.697 105.283 195.536C104.699 197.214 103.844 198.643 102.926 199.672C101.851 198.713 101.037 197.286 100.452 195.54C100.16 194.668 99.931 193.716 99.775 192.709C99.619 191.702 99.624 190.641 99.669 189.547C99.772 187.359 100.205 185.33 101.004 183.653C101.762 181.971 102.737 180.628 103.827 179.764Z" fill="#C2D0D3"/>
</g>
<path opacity="0.4" d="M290.997 116.888L289.687 126.445L296.817 132.943L287.322 134.65L283.346 143.44L278.788 134.937L269.2 133.871L275.878 126.909L273.929 117.461L282.614 121.661L290.997 116.888Z" fill="#C2D0D3"/>
<path opacity="0.4" d="M254.668 98.995L256.375 108.49L265.164 112.467L256.662 117.024L255.596 126.612L248.634 119.934L239.186 121.883L243.386 113.199L238.612 104.815L248.17 106.126L254.668 98.995Z" fill="#C2D0D3"/>
<path opacity="0.4" d="M214.588 93.205L219.146 101.708L228.734 102.773L222.055 109.735L224.005 119.183L215.32 114.984L206.937 119.757L208.247 110.2L201.117 103.702L210.612 101.995L214.588 93.205Z" fill="#C2D0D3"/>
<path opacity="0.4" d="M174.68 100.084L181.642 106.762L191.09 104.813L186.891 113.497L191.664 121.88L182.107 120.57L175.609 127.701L173.901 118.206L165.112 114.229L173.615 109.672L174.68 100.084Z" fill="#C2D0D3"/>
<path opacity="0.4" d="M138.852 118.958L147.536 123.158L155.92 118.384L154.609 127.942L161.74 134.439L152.245 136.147L148.268 144.936L143.711 136.434L134.123 135.368L140.801 128.406L138.852 118.958Z" fill="#C2D0D3"/>
<path opacity="0.4" d="M131.579 151.887C131.579 149.242 129.435 147.098 126.79 147.098C124.145 147.098 122.001 149.242 122.001 151.887C122.001 154.532 124.145 156.676 126.79 156.676C129.435 156.676 131.579 154.532 131.579 151.887Z" fill="#C2D0D3"/>
<path opacity="0.4" d="M311.17 151.887C311.17 149.242 309.026 147.098 306.381 147.098C303.736 147.098 301.591 149.242 301.591 151.887C301.591 154.532 303.735 156.676 306.381 156.676C309.026 156.676 311.17 154.532 311.17 151.887Z" fill="#C2D0D3"/>
<g opacity="0.8">
<path d="M256.365 245.395C257.784 247.406 258.495 249.914 258.495 252.927C258.495 256.66 257.43 259.994 255.301 262.934C253.172 265.876 250.298 267.345 246.687 267.345C240.493 267.345 231.264 266.841 219.005 265.839C216.552 265.697 212.035 265.408 205.454 264.978C198.872 264.548 193.709 264.332 189.967 264.332C188.288 264.332 185.835 264.978 182.611 266.27C181.963 266.415 180.705 266.771 178.836 267.345C176.963 267.917 175.382 268.206 174.093 268.206C172.027 268.206 170.318 267.164 168.963 265.086C167.608 263.008 166.93 259.887 166.93 255.724C166.93 251.134 167.898 247.583 169.834 245.072C171.77 242.563 174.8 240.303 178.932 238.293C187.707 233.989 195.997 228.501 203.808 221.83C211.615 215.158 217.872 207.949 222.585 200.201C227.294 192.454 229.65 185.066 229.65 178.035C229.65 172.439 228.519 168.317 226.262 165.661C224.002 163.008 220.421 161.68 215.518 161.68C209.838 161.68 205.289 163.402 201.87 166.845C198.449 170.288 196.741 175.097 196.741 181.264C196.741 189.731 192.932 193.961 185.319 193.961C181.705 193.961 178.898 192.815 176.898 190.518C174.895 188.224 173.897 184.922 173.897 180.619C173.897 173.446 175.573 166.846 178.93 160.819C182.284 154.794 187.318 149.952 194.029 146.293C200.738 142.635 208.935 140.806 218.614 140.806C230.229 140.806 239.327 144.034 245.909 150.491C252.491 156.947 255.782 165.915 255.782 177.391C255.782 188.296 251.49 199.701 242.909 211.609C234.324 223.519 221.969 234.065 205.838 243.245L250.168 242.384C252.88 242.382 254.944 243.387 256.365 245.395Z" fill="#C2D0D3"/>
</g>
<path opacity="0.3" d="M214.191 80.709C211.177 80.709 208.19 80.819 205.226 81.016L81.321 204.921C81.124 207.885 81.014 210.872 81.014 213.886C81.014 236.458 86.637 257.713 96.547 276.341L276.646 96.242C258.018 86.332 236.762 80.709 214.191 80.709Z" fill="#C2D0D3"/>
<path opacity="0.3" d="M289.415 103.982L104.287 289.11C110.103 297.59 116.87 305.366 124.442 312.277L312.581 124.138C305.671 116.566 297.895 109.798 289.415 103.982Z" fill="#C2D0D3"/>
<path opacity="0.3" d="M347.368 213.885C347.368 207.264 346.877 200.757 345.944 194.395L194.7 345.639C201.063 346.572 207.569 347.063 214.191 347.063C228.91 347.063 243.068 344.67 256.305 340.26L340.565 256C344.974 242.762 347.368 228.604 347.368 213.885Z" fill="#C2D0D3"/>
<path d="M214.191 348.695C139.857 348.695 79.382 288.22 79.382 213.886C79.382 139.552 139.857 79.076 214.191 79.076C288.525 79.076 349 139.551 349 213.886C349 288.219 288.525 348.695 214.191 348.695ZM214.191 82.341C141.657 82.341 82.647 141.352 82.647 213.886C82.647 286.42 141.658 345.43 214.191 345.43C286.725 345.43 345.736 286.419 345.736 213.886C345.735 141.352 286.725 82.341 214.191 82.341Z" fill="#C2D0D3"/>
<g opacity="0.5">
<path d="M214.191 348.695C139.857 348.695 79.382 288.22 79.382 213.886C79.382 139.552 139.857 79.076 214.191 79.076C288.525 79.076 349 139.551 349 213.886C349 288.219 288.525 348.695 214.191 348.695ZM214.191 82.341C141.657 82.341 82.647 141.352 82.647 213.886C82.647 286.42 141.658 345.43 214.191 345.43C286.725 345.43 345.736 286.419 345.736 213.886C345.735 141.352 286.725 82.341 214.191 82.341Z" fill="#C2D0D3"/>
</g>
<path d="M132.278 127.783C114.905 121.62 110.151 116.623 104.287 98.362C98.423 116.624 93.67 121.62 76.297 127.783C93.67 133.947 98.424 138.943 104.287 157.204C110.151 138.943 114.905 133.947 132.278 127.783Z" fill="white"/>
<path d="M331.774 292.149C315.348 286.322 310.854 281.598 305.31 264.332C299.766 281.598 295.272 286.321 278.846 292.149C295.272 297.976 299.766 302.7 305.31 319.965C310.854 302.7 315.349 297.976 331.774 292.149Z" fill="white"/>
<path d="M344.838 319.965C336.729 317.088 334.511 314.757 331.774 306.233C329.037 314.756 326.819 317.088 318.71 319.965C326.819 322.842 329.037 325.173 331.774 333.697C334.511 325.174 336.729 322.842 344.838 319.965Z" fill="white"/>
<path d="M147.304 94.44C139.196 91.563 136.977 89.232 134.24 80.708C131.503 89.231 129.285 91.563 121.176 94.44C129.285 97.317 131.503 99.648 134.24 108.172C136.977 99.649 139.196 97.317 147.304 94.44Z" fill="white"/>
<path d="M163.364 276.832C173.108 267.424 181.76 259.108 189.32 251.884C196.88 244.492 203.432 237.856 208.976 231.976C214.688 225.928 219.392 220.3 223.088 215.092C226.952 209.884 229.808 204.844 231.656 199.972C233.504 194.932 234.428 189.64 234.428 184.096C234.428 180.4 233.924 177.208 232.916 174.52C232.076 171.832 230.648 169.648 228.632 167.968C226.784 166.12 224.432 164.776 221.576 163.936C218.888 162.928 215.78 162.424 212.252 162.424C208.724 162.424 205.364 162.844 202.172 163.684C199.148 164.524 196.208 165.784 193.352 167.464C190.664 169.144 188.144 171.412 185.792 174.268C184.28 176.452 183.272 178.216 182.768 179.56C182.432 180.736 182.348 181.996 182.516 183.34L181.004 185.104L179.24 183.844L159.584 168.724C163.448 162.172 168.068 156.712 173.444 152.344C178.988 147.976 185.036 144.616 191.588 142.264C198.308 139.912 205.28 138.736 212.504 138.736C221.576 138.736 229.808 140.584 237.2 144.28C244.592 147.976 250.472 153.268 254.84 160.156C259.208 166.876 261.392 174.856 261.392 184.096C261.392 190.648 260.384 196.864 258.368 202.744C256.52 208.456 253.832 214.084 250.304 219.628C246.944 225.004 242.744 230.548 237.704 236.26C232.664 241.972 227.036 248.02 220.82 254.404C214.604 260.62 207.884 267.424 200.66 274.816H250.304C253.16 274.816 255.176 274.648 256.352 274.312C257.528 273.976 258.62 273.304 259.628 272.296H261.896V274.816V298H163.364V276.832Z" fill="white"/>
</svg>
