<svg width="1504" height="1652" viewBox="0 0 1504 1652" fill="none" xmlns="http://www.w3.org/2000/svg">
<path fill-rule="evenodd" clip-rule="evenodd" d="M751.593 0.850098L189.269 0C274.944 178.281 330.4 148.287 442.581 148.037C545.562 147.812 648.587 147.812 751.593 147.862C854.593 147.812 957.617 147.812 1060.6 148.037C1172.78 148.287 1228.24 178.281 1313.91 0L751.593 0.850098ZM126.851 1585.59H1376.33V1651.53H126.851V1585.59ZM803.343 1519.72L1066.11 1519.93L1066.09 1519.72H1219.13V1453.78H1056.92C1029.42 1327.25 948.542 1244.62 827.167 1214L826.742 1077.27C829.061 1075.75 832.836 1075.22 834.642 1074.67C836.467 1074.1 840.417 1072.84 842.686 1072.15L867.63 1065.05C899.717 1051.19 902.267 1035.05 920.411 955.88C925.867 930.368 930.455 904.693 934.173 878.88C961.973 868.555 1046.83 843.43 1057.57 839.199C1087.39 719.218 1089.92 619.512 1129.85 496.419C1147.92 440.7 1189.8 357.807 1218.49 294.238H1289.22L1289.05 294.594L1409.85 294.094C1391.69 402.45 1337.87 501.181 1283.13 564.875C1178.43 686.744 1127.92 675.975 1139.6 795.931C1311.87 688.144 1480.91 506.038 1503.18 219.245L1356.73 220.288H1246.79L1246.92 219.651L751.592 219.563L256.256 219.651L256.393 220.288H146.45L0 219.245C22.269 506.038 191.306 688.144 363.58 795.931C375.255 675.975 324.743 686.744 220.043 564.875C165.312 501.181 111.493 402.45 93.3309 294.094L214.124 294.594L213.961 294.238H284.686C313.373 357.807 355.255 440.7 373.323 496.419C413.254 619.512 415.792 719.218 445.604 839.199C456.341 843.43 541.204 868.555 569.004 878.88C572.723 904.692 577.31 930.367 582.766 955.88C600.91 1035.06 603.46 1051.19 635.547 1065.05L660.491 1072.15C662.76 1072.84 666.71 1074.1 668.534 1074.67C670.34 1075.22 674.115 1075.75 676.434 1077.27L676.009 1214C554.634 1244.62 473.759 1327.25 446.26 1453.78H284.05V1519.72H437.087L437.068 1519.93L699.842 1519.72H803.343Z" fill="#25438D"/>
<path fill-rule="evenodd" clip-rule="evenodd" d="M767.105 543.134V547.622C767.105 547.622 790.728 511.057 828.893 489.243C885.67 456.748 957.617 475.327 982.283 539.829C1008.93 609.863 946.101 652.133 884.592 662.571C875.947 663.997 867.22 664.869 858.464 665.18C788.292 667.267 730.888 642.949 686.009 588.153C686.009 588.153 697.142 624.231 725.739 648.028C702.09 654.639 677.31 656.169 653.028 652.516C630.205 649.037 606.965 639.47 585.291 628.998C547.021 610.489 515.71 587.77 516.58 548.596C517.469 532.141 523.113 516.297 532.827 502.985C571.096 447.32 689.383 381.218 755.485 370.572C761.97 369.53 768.543 369.134 775.107 369.389C810.732 370.954 857.281 385.218 857.281 424.776C857.281 464.333 809.166 453.165 775.107 445.65C741.047 438.135 651.636 441.962 610.862 501.524C610.862 501.524 706.987 435.7 792.189 490.495C792.189 490.495 772.741 504.725 767.383 542.995L767.105 543.134Z" fill="white"/>
</svg>
